<svg xmlns="http://www.w3.org/2000/svg" viewBox="0 0 842.29 115.89"><defs><style>.cls-1{isolation:isolate;}.cls-2{fill:#050707;}.cls-3{fill:#d81558;}.cls-4{mix-blend-mode:hard-light;}.cls-5{fill:#d2d2d2;}</style></defs><g class="cls-1"><g id="Layer_2" data-name="Layer 2"><polygon class="cls-2" points="819.23 11.53 819.23 0 738.52 0 726.4 0 634.75 0 622.63 0 553.45 0 553.45 11.53 530.98 11.53 530.98 0 415.08 0 415.08 34.59 404.14 34.59 404.14 0 323.43 0 311.31 0 219.66 0 207.54 0 138.36 0 138.36 11.53 115.89 11.53 103.77 11.53 92.83 11.53 92.83 0 0 0 0 46.71 11.53 46.71 11.53 69.18 0 69.18 0 115.89 103.77 115.89 115.89 115.89 207.54 115.89 219.66 115.89 311.31 115.89 323.43 115.89 415.08 115.89 427.2 115.89 518.86 115.89 530.98 115.89 565.57 115.89 565.57 92.83 588.03 92.83 588.03 115.89 622.63 115.89 634.75 115.89 715.46 115.89 715.46 81.3 726.4 81.3 726.4 115.89 842.29 115.89 842.29 11.53 819.23 11.53"/><path class="cls-3" d="M11.83,104.07V81H23.36V34.89H11.83V11.83H81V23.36h23.06v80.71ZM81,81V46.42H58V34.89H46.42V81Z"/><path class="cls-3" d="M115.6,104.07V81h34.59V46.42H115.6V23.36h34.59V11.83h57.65V34.89H173.25V81h34.59v23.06Z"/><path class="cls-3" d="M219.37,104.07V81h69.18V69.48H219.37V11.83h92.24V34.89H242.43V46.42h69.18v57.65Z"/><path class="cls-3" d="M323.14,104.07V81h11.53V34.89H323.14V11.83h69.18V46.42h23.06v57.65ZM392.32,81V69.48H369.26V34.89H357.73V81Z"/><path class="cls-3" d="M426.91,104.07V11.83h92.24v92.24ZM496.09,81V34.89H450V81Z"/><path class="cls-3" d="M599.86,104.07V81H553.74v23.06H530.68V23.36h34.59V11.83h57.65v92.24Zm0-46.12V34.89H588.33V46.42H553.74V58Z"/><path class="cls-3" d="M680.57,104.07V69.48H657.51v34.59H634.45V46.42h69.18V34.89H634.45V11.83h92.24V69.48H703.63v34.59Z"/><path class="cls-3" d="M738.22,104.07V81h11.53V34.89H738.22V11.83H807.4V23.36h23.06v80.71ZM807.4,81V46.42H784.34V34.89H772.81V81Z"/><g class="cls-4"><polygon class="cls-5" points="222.91 57.95 222.91 65.93 292.1 65.93 292.1 84.55 222.91 84.55 222.91 100.52 308.06 100.52 308.06 57.95 222.91 57.95"/><polygon class="cls-5" points="84.55 57.95 84.55 84.55 42.87 84.55 42.87 57.95 26.9 57.95 26.9 84.55 15.37 84.55 15.37 100.52 100.52 100.52 100.52 57.95 84.55 57.95"/><polygon class="cls-5" points="169.7 57.95 153.74 57.95 153.74 84.55 119.14 84.55 119.14 100.52 204.29 100.52 204.29 84.55 169.7 84.55 169.7 57.95"/><polygon class="cls-5" points="372.81 57.95 372.81 65.93 395.87 65.93 395.87 84.55 354.18 84.55 354.18 57.95 338.22 57.95 338.22 84.55 326.69 84.55 326.69 100.52 411.83 100.52 411.83 57.95 372.81 57.95"/><polygon class="cls-5" points="638 57.95 638 100.52 653.96 100.52 653.96 65.93 684.12 65.93 684.12 100.52 700.08 100.52 700.08 65.93 723.14 65.93 723.14 57.95 638 57.95"/><polygon class="cls-5" points="810.95 57.95 810.95 84.55 769.26 84.55 769.26 57.95 753.3 57.95 753.3 84.55 741.77 84.55 741.77 100.52 826.92 100.52 826.92 57.95 810.95 57.95"/><polygon class="cls-5" points="603.41 57.95 603.41 61.49 550.19 61.49 550.19 57.95 534.23 57.95 534.23 100.52 550.19 100.52 550.19 77.46 603.41 77.46 603.41 100.52 619.37 100.52 619.37 57.95 603.41 57.95"/><polygon class="cls-5" points="499.64 57.95 499.64 84.55 446.42 84.55 446.42 57.95 430.46 57.95 430.46 100.52 515.6 100.52 515.6 57.95 499.64 57.95"/></g></g></g></svg>